<!DOCTYPE svg PUBLIC "-//W3C//DTD SVG 1.1//EN" "http://www.w3.org/Graphics/SVG/1.1/DTD/svg11.dtd">
<!-- Uploaded to: SVG Repo, www.svgrepo.com, Transformed by: SVG Repo Mixer Tools -->
<svg height="800px" width="800px" version="1.1" id="_x32_" xmlns="http://www.w3.org/2000/svg" xmlns:xlink="http://www.w3.org/1999/xlink" viewBox="0 0 512 512" xml:space="preserve" fill="#ffffff" stroke="#ffffff">
<g id="SVGRepo_bgCarrier" stroke-width="0"/>
<g id="SVGRepo_tracerCarrier" stroke-linecap="round" stroke-linejoin="round"/>
<g id="SVGRepo_iconCarrier"> <style type="text/css"> .st0{fill:#ffffff;} </style> <g> <path class="st0" d="M502.927,328.459c9.866-13.168,18.102-49.372-11.53-67.482c-29.631-18.11-166.243-79.02-209.051-105.357 c-42.792-26.337-60.894-4.933-60.894,18.118c0,23.043,0,31.27,0,39.506c0,8.22,4.926,21.388-29.632,21.388 c-34.572,0-100.407,0-116.878,0c-51.012,0-46.086-32.918-64.188-11.514c-18.102,21.396-10.431,83.953,1.647,105.341H502.927z"/> <path class="st0" d="M11.994,341.322l2.604,27.192H172.04l3.875-10.964l45.631,10.964h278.965 c3.184-10.454,4.047-19.412,2.949-27.192H11.994z"/> </g> </g>
</svg>