<!DOCTYPE svg PUBLIC "-//W3C//DTD SVG 1.1//EN" "http://www.w3.org/Graphics/SVG/1.1/DTD/svg11.dtd">
<!-- Uploaded to: SVG Repo, www.svgrepo.com, Transformed by: SVG Repo Mixer Tools -->
<svg height="800px" width="800px" version="1.1" id="_x32_" xmlns="http://www.w3.org/2000/svg" xmlns:xlink="http://www.w3.org/1999/xlink" viewBox="0 0 512 512" xml:space="preserve" fill="#ffffff" stroke="#ffffff">
<g id="SVGRepo_bgCarrier" stroke-width="0"/>
<g id="SVGRepo_tracerCarrier" stroke-linecap="round" stroke-linejoin="round"/>
<g id="SVGRepo_iconCarrier"> <style type="text/css"> .st0{fill:#ffffff;} </style> <g> <polygon class="st0" points="94.676,230.65 141.297,300.241 171.588,300.241 124.967,230.65 "/> <polygon class="st0" points="156.29,230.65 202.91,300.241 233.201,300.241 186.581,230.65 "/> <polygon class="st0" points="221.2,230.65 267.819,300.241 298.11,300.241 251.49,230.65 "/> <path class="st0" d="M67.597,200.942c-8.384-3.862-29.614-23.47-32.21-25.77c-5.798-5.156-10.311-1.935-10.311,2.578 c0,4.522,0,43.163,0,43.163s29.64,0,39.944,0C75.322,220.913,75.973,204.812,67.597,200.942z"/> <path class="st0" d="M503.378,247.654c-8.148-9.449-20.014-15.137-33.731-19.802c-10.185-3.415-21.544-6.179-33.486-8.798 c0.878-2.519,1.394-5.122,1.394-7.734c0.009-6.026-2.324-12.12-6.913-16.71c0,0,0,0-0.008,0c0-0.008,0-0.008,0-0.008 c-4.59-4.607-10.7-6.957-16.726-6.94c-6.035-0.017-12.137,2.332-16.743,6.931l-13.058,13.083c-0.651-0.152-1.352-0.312-1.986-0.474 c-5.975-1.495-12.305-3.423-18.762-5.535c2.282-3.762,3.499-8.004,3.49-12.23c0.009-6.035-2.324-12.137-6.93-16.734l-0.009-0.018 c-4.606-4.581-10.7-6.922-16.726-6.913c-6.026-0.008-12.12,2.332-16.717,6.922l-10.421,10.421 c-6.897-3.068-13.641-6.212-20.26-9.407c3.229-4.226,4.962-9.263,4.944-14.3c0.017-6.026-2.324-12.137-6.93-16.734 c-4.598-4.607-10.7-6.922-16.717-6.914c-6.018-0.008-12.12,2.307-16.726,6.897l-0.017,0.018l-8.181,8.189 c-8.9-5.062-16.388-9.634-21.543-13.083l-0.026-0.016c-5.89-3.914-10.936-6.702-15.593-8.596 c-4.632-1.885-8.959-2.874-13.117-2.874c-5.536-0.042-10.337,1.91-13.852,4.065c-3.566,2.164-6.246,4.404-8.976,6.178l-0.026,0.016 c-3.837,2.595-7.437,6.052-12.044,10.117c-6.803,6.06-15.314,13.278-25.49,18.906c-10.192,5.638-21.872,9.678-35.388,9.686 c-16.928-0.017-27.257-2.866-34.99-7.032c-7.734-4.184-13.404-10.125-20.124-17.8c-4.015-4.572-8.241-8.181-12.695-10.742 c-4.454-2.552-9.213-4.09-14.122-4.099c-3.593-0.008-7.235,0.88-10.422,2.662c-4.817,2.679-8.35,7.15-10.53,12.373 c-2.198,5.249-3.212,11.351-3.22,18.324v150.331c0,6.17,0.667,12.171,2.57,17.859c2.746,8.545,8.823,16.252,17.842,20.901 c6.947,3.634,15.373,5.689,25.6,6.466l1.073,13.083c0.372,4.581,4.201,8.114,8.798,8.114h14.664c4.589,0,8.427-3.533,8.799-8.114 l1.15-14.089c9.82-0.989,19.549-2.358,30.054-3.778c0.482-0.068,0.989-0.136,1.47-0.195l1.124,13.734 c0.372,4.581,4.21,8.114,8.798,8.114h14.664c4.589,0,8.426-3.533,8.798-8.114l1.436-17.63c10.632-0.879,22.38-1.555,35.936-1.818 c0.828-0.016,1.623-0.025,2.417-0.025c1.014,0,1.953,0.118,2.95,0.144l1.581,19.329c0.371,4.581,4.209,8.114,8.798,8.114h14.664 c4.597,0,8.426-3.533,8.798-8.114l1.2-14.706c3.414,0.667,6.854,1.344,10.615,2.054c8.334,1.572,17.699,3.127,28.457,4.395 l1.032,12.585c0.372,4.581,4.209,8.114,8.798,8.114h14.664c4.597,0,8.426-3.533,8.798-8.114l0.828-10.1 c4.666,0.144,9.492,0.237,14.63,0.237c7.988,0,16.642-0.211,25.905-0.626l0.853,10.488c0.372,4.581,4.21,8.114,8.798,8.114h14.664 c4.588,0,8.426-3.533,8.798-8.114l1.056-12.965c11.444-1.141,22.136-2.594,31.94-4.403l0.802,9.795 c0.372,4.581,4.21,8.114,8.798,8.114h14.664c4.597,0,8.426-3.533,8.798-8.114l1.513-18.484 c16.607-5.485,30.181-12.137,40.881-19.811c11.9-8.554,20.377-18.374,25.786-28.778c5.426-10.396,7.741-21.298,7.734-31.786 C512.058,262.149,508.788,253.917,503.378,247.654z M387.226,229.06l0.016-0.016l5.696-5.697l10.92-10.945h-0.008l5.561-5.57 c1.268-1.259,2.848-1.85,4.497-1.859c1.648,0.009,3.212,0.6,4.48,1.859l6.128-6.11l-6.12,6.119c1.252,1.251,1.843,2.823,1.852,4.48 c-0.009,1.64-0.6,3.212-1.843,4.471l-2.882,2.891l-19.329,19.329c-1.268,1.259-2.84,1.851-4.48,1.859 c-1.648-0.008-3.212-0.6-4.471-1.85l-0.016-0.026c-1.259-1.259-1.851-2.822-1.86-4.462 C385.375,231.892,385.967,230.328,387.226,229.06z M312.115,211.54l20.926-20.927l-0.008-0.008l5.662-5.663 c1.268-1.259,2.84-1.85,4.488-1.859c1.648,0.009,3.22,0.6,4.504,1.876l-0.008-0.017c1.251,1.26,1.851,2.84,1.86,4.497 c-0.008,1.648-0.608,3.22-1.868,4.496l-1.691,1.69h-0.008l-24.89,24.908c-1.26,1.25-2.84,1.85-4.496,1.859 c-1.648-0.008-3.22-0.608-4.471-1.859c-1.276-1.277-1.86-2.848-1.868-4.488C310.255,214.397,310.839,212.824,312.115,211.54z M245.98,181.553l0.017-0.008l21.856-21.89h-0.008l4.742-4.75l-0.008,0.017c1.259-1.243,2.84-1.842,4.505-1.851 c1.665,0.009,3.237,0.601,4.48,1.843c1.259,1.259,1.851,2.84,1.859,4.497c-0.008,1.656-0.6,3.228-1.859,4.487l-26.598,26.615 c-1.267,1.259-2.84,1.851-4.487,1.859c-1.648-0.008-3.22-0.6-4.48-1.859c-1.26-1.268-1.859-2.848-1.868-4.496 C244.138,184.367,244.729,182.804,245.98,181.553z M493.388,282.763c-30.181,21.653-116.576,32.624-158.978,32.624H98.226 c-41.127,0-68.231-28.364-80.917-52.502v-93.933c-0.025-6.998,1.488-11.545,2.95-13.658c0.718-1.082,1.36-1.606,1.919-1.919 c0.566-0.305,1.107-0.465,1.995-0.474c1.174-0.008,3.067,0.397,5.502,1.8c2.426,1.386,5.308,3.728,8.3,7.142 c6.871,7.818,14.14,15.771,24.891,21.603c10.742,5.84,24.425,9.144,43.238,9.128c22.778,0,41.219-9.196,54.97-18.898 c6.906-4.86,12.712-9.889,17.411-14.072c4.64-4.15,8.418-7.548,10.126-8.63l-0.026,0.017c3.634-2.426,6.314-4.598,8.342-5.781 c2.087-1.208,3.136-1.563,4.953-1.606c1.386,0,3.457,0.33,6.618,1.606c3.136,1.268,7.277,3.49,12.508,6.973l-0.025-0.017 c4.808,3.22,11.139,7.108,18.51,11.385l-5.748,5.755h0.009c-3.457,3.448-5.629,7.734-6.5,12.205c-0.287,1.487-0.431,3-0.431,4.505 c-0.008,6.026,2.324,12.128,6.922,16.726c4.598,4.614,10.7,6.956,16.735,6.947c1.504,0,3.017-0.144,4.513-0.431 c4.471-0.871,8.772-3.051,12.212-6.508l0.009-0.008l15.931-15.932c6.44,3.169,13.058,6.296,19.828,9.39l-3.102,3.11 c-4.597,4.606-6.947,10.708-6.938,16.734c-0.008,4.522,1.31,9.077,3.913,13.016c0.862,1.31,1.868,2.552,3.017,3.702 c4.598,4.615,10.701,6.948,16.727,6.939c6.026,0.009,12.128-2.324,16.726-6.922l17.199-17.208c7.023,2.46,13.903,4.623,20.631,6.5 c-1.986,3.566-3.094,7.514-3.085,11.46c-0.016,6.035,2.333,12.145,6.948,16.734l-0.018-0.025l0.009,0.008 c3.423,3.432,7.683,5.595,12.12,6.483c0.025,0,0.059,0.016,0.084,0.025c1.496,0.288,3.009,0.431,4.513,0.431 c5.519,0.008,11.038-2.045,15.475-5.925c0.406-0.355,0.854-0.625,1.243-1.014l0.008-0.008l16.008-16.008 c20.174,4.259,38.412,8.595,50.964,14.435c6.762,3.11,11.756,6.61,14.782,10.193c3.009,3.643,4.437,7.142,4.497,12.298 C494.681,275.038,494.259,278.909,493.388,282.763z"/> </g> </g>
</svg>